<svg xmlns="http://www.w3.org/2000/svg" fill="none" viewBox="-1.28 -1.28 67.20 66.56"><path fill="#211d17" d="M48.681 38.303H18.996a.731.731 0 0 0-.733.73v11.4c0 .404.328.73.733.73H31.4c.425 0 .638.512.337.811L20.4 63.314c-.321.321-.756.5-1.211.5H1.313a.917.917 0 0 1-.918-.915v-10.82c0-.45.178-.882.498-1.202l18.303-18.306a.919.919 0 0 0-.001-1.303L.895 13.032a1.701 1.701 0 0 1-.5-1.204V.916C.395.409.805 0 1.313 0h17.783c.454 0 .887.18 1.208.5L31.83 11.984c.3.3.087.811-.338.811H18.996a.731.731 0 0 0-.733.73v10.95c0 .404.328.73.733.73H48.68a1.04 1.04 0 0 1 1.042 1.038v11.022a1.04 1.04 0 0 1-1.042 1.037ZM64.578 62.88V52.304a.904.904 0 0 0-.91-.898H40.685a.466.466 0 0 0-.335.796l11.273 11.123c.318.313.749.49 1.197.49h10.808c.526 0 .95-.419.95-.935ZM63.657 0H52.542c-.457 0-.896.183-1.22.509L39.76 12.173a.483.483 0 0 0 .34.823L63.618 13a.965.965 0 0 0 .963-.968V.931A.925.925 0 0 0 63.657 0Z"></path></svg>