<svg viewBox="-0.32 -0.32 139.68 16.64" xmlns="http://www.w3.org/2000/svg" fill="none" id="svg1332068161_4497"><path d="M0 .463h3.827V7.92c-.008.652.07 1.301.235 1.932a3.56 3.56 0 0 0 .794 1.493c.416.435.931.763 1.503.954a6.974 6.974 0 0 0 2.34.34 6.535 6.535 0 0 0 1.344-.142 7.522 7.522 0 0 0 1.303-.396 6.956 6.956 0 0 0 1.16-.598c.339-.216.65-.473.926-.764V.463h3.84v15.264h-3.836V14.42a10.66 10.66 0 0 1-2.837 1.188 11.05 11.05 0 0 1-2.714.36 11.317 11.317 0 0 1-3.577-.502A6.127 6.127 0 0 1 1.856 14a5.788 5.788 0 0 1-1.395-2.376 10.654 10.654 0 0 1-.46-3.172V.463ZM21.09.48h3.839v1.29A11.84 11.84 0 0 1 27.854.554C28.75.327 29.674.21 30.6.206a9.94 9.94 0 0 1 3.242.51 7.18 7.18 0 0 1 2.584 1.521 6.903 6.903 0 0 1 1.688 2.514 9.186 9.186 0 0 1 .617 3.485v7.49h-3.828V8.854a6.591 6.591 0 0 0-.357-2.245 4.518 4.518 0 0 0-1.021-1.667 4.409 4.409 0 0 0-1.622-1.033 6.06 6.06 0 0 0-2.134-.344c-.43 0-.858.045-1.28.13a8.174 8.174 0 0 0-1.283.369c-.415.16-.814.359-1.192.593a6.542 6.542 0 0 0-1.065.792v10.295h-3.86V.479ZM42.482.479h3.84v15.248h-3.84V.479Zm5.577-.016h4.45l3.974 9.178 1.038 2.57 1.037-2.57L62.532.463h4.447l-7.233 15.264h-4.435L48.06.463ZM67.893 8.05a7.133 7.133 0 0 1 .636-2.966 7.525 7.525 0 0 1 1.812-2.498A8.9 8.9 0 0 1 73.266.852a12.29 12.29 0 0 1 7.884 0 8.912 8.912 0 0 1 2.985 1.79 7.725 7.725 0 0 1 1.88 2.676 8.288 8.288 0 0 1 .655 3.294v.471c0 .166 0 .32-.036.46H72.173c.17.47.441.896.795 1.25.4.405.866.739 1.379.987a8.02 8.02 0 0 0 1.92.637 11.92 11.92 0 0 0 2.42.253c.885 0 1.768-.092 2.634-.277.85-.178 1.686-.414 2.504-.705l1.295 2.922a14.512 14.512 0 0 1-3.112 1.053c-.578.12-1.163.209-1.752.266-.608.06-1.252.091-1.923.091a14.974 14.974 0 0 1-4.527-.622 9.772 9.772 0 0 1-3.258-1.694 6.989 6.989 0 0 1-1.987-2.518 7.409 7.409 0 0 1-.668-3.136Zm14.704-1.485a3.822 3.822 0 0 0-.64-1.188 4.229 4.229 0 0 0-1.085-.954 5.503 5.503 0 0 0-1.502-.642 7.214 7.214 0 0 0-1.876-.217 7.386 7.386 0 0 0-1.987.25 5.973 5.973 0 0 0-1.57.656 4.439 4.439 0 0 0-1.12.959 3.68 3.68 0 0 0-.656 1.148l10.436-.012ZM89.75.48h3.839v2.197a16.887 16.887 0 0 1 2.682-1.632C97.174.605 98.118.255 99.09 0l1.129 3.5a12.253 12.253 0 0 0-3.899.99 6.998 6.998 0 0 0-2.73 2.166v9.07h-3.84V.48Zm12.866 10.571a12.037 12.037 0 0 0 3.422 1.366c1.254.294 2.538.441 3.827.44a11.44 11.44 0 0 0 2.201-.186 5.4 5.4 0 0 0 1.415-.468 1.89 1.89 0 0 0 .751-.645c.141-.22.216-.476.219-.736a1.171 1.171 0 0 0-.469-.923 2.48 2.48 0 0 0-1.562-.396c-.364.003-.727.024-1.089.063l-1.224.139a80.02 80.02 0 0 1-1.339.135c-.465.043-.93.063-1.407.063a9.058 9.058 0 0 1-2.65-.337 4.937 4.937 0 0 1-1.785-.906 3.426 3.426 0 0 1-.997-1.378 4.591 4.591 0 0 1-.314-1.71 4.365 4.365 0 0 1 .544-2.147 5.104 5.104 0 0 1 1.562-1.698 7.897 7.897 0 0 1 2.444-1.12 11.963 11.963 0 0 1 3.199-.397c.637 0 1.274.036 1.908.107.671.072 1.331.17 1.987.29a23.67 23.67 0 0 1 1.867.419c.539.142 1.07.313 1.59.51l-1.192 2.974a21.68 21.68 0 0 0-2.925-.859 14.216 14.216 0 0 0-3.004-.317 8.797 8.797 0 0 0-1.82.163 4.387 4.387 0 0 0-1.213.423c-.275.143-.51.353-.683.61a1.333 1.333 0 0 0-.215.717 1.1 1.1 0 0 0 .112.49c.081.163.207.3.361.397.204.122.429.205.664.245a4.81 4.81 0 0 0 1.005.087c.385-.002.77-.024 1.153-.067l1.271-.135c.442-.047.899-.09 1.371-.134.473-.044.95-.068 1.443-.068a8.12 8.12 0 0 1 2.408.325c.625.18 1.206.488 1.705.903a3.79 3.79 0 0 1 1.014 1.37c.227.544.342 1.129.337 1.718a4.613 4.613 0 0 1-.56 2.237 5.1 5.1 0 0 1-1.661 1.79 8.652 8.652 0 0 1-2.742 1.188 15.107 15.107 0 0 1-3.795.427 19.846 19.846 0 0 1-2.572-.182 21.616 21.616 0 0 1-2.344-.44 18.333 18.333 0 0 1-2.095-.653 16.445 16.445 0 0 1-1.784-.791l1.661-2.903Zm17.539-3.001a7.185 7.185 0 0 1 .631-2.966 7.591 7.591 0 0 1 1.832-2.498 8.902 8.902 0 0 1 2.925-1.734 12.292 12.292 0 0 1 7.885 0 8.915 8.915 0 0 1 2.984 1.79 7.772 7.772 0 0 1 1.884 2.684 8.302 8.302 0 0 1 .656 3.294v.471c0 .166 0 .32-.032.46h-14.485c.171.469.442.895.794 1.25.403.404.87.737 1.383.986.61.293 1.255.508 1.92.638a11.91 11.91 0 0 0 2.412.226c.886 0 1.769-.093 2.635-.278a19.74 19.74 0 0 0 2.503-.704l1.296 2.922c-.498.23-1.007.436-1.526.613-.521.178-1.052.324-1.59.44-.579.12-1.164.208-1.752.265-.608.06-1.252.091-1.928.091a14.992 14.992 0 0 1-4.526-.621 9.794 9.794 0 0 1-3.259-1.695 6.959 6.959 0 0 1-1.987-2.518 7.406 7.406 0 0 1-.655-3.116Zm14.703-1.485a3.829 3.829 0 0 0-.643-1.188 4.158 4.158 0 0 0-1.081-.954 5.486 5.486 0 0 0-1.506-.642 7.18 7.18 0 0 0-1.864-.217 7.364 7.364 0 0 0-1.987.25 5.973 5.973 0 0 0-1.59.656c-.425.256-.805.58-1.124.959a3.566 3.566 0 0 0-.652 1.148l10.447-.012Z" fill="#211d17"></path></svg>