<?xml version="1.0" encoding="utf-8"?>
<svg version="1.1" xmlns="http://www.w3.org/2000/svg" xmlns:xlink="http://www.w3.org/1999/xlink" x="0px" y="0px"
	 viewBox="-1.07 -1.07 145.32 113.13" style="enable-background:new 0 0 143 111;" xml:space="preserve">
<style type="text/css">
	.st0{fill:#211d17;}
</style>
<g>
	<g>
		<g>
			<path class="st0" d="M120.03,87.66c-0.01-1.05-0.45-1.88-1.51-2.17c-1.06-0.29-1.98-0.04-2.64,0.92
				c-0.15,0.21-0.31,0.41-0.47,0.62c-3.41-2.79-8-2.6-10.96,0.38c-3.27,3.31-3.46,9.55-0.4,13.14c2.89,3.37,7.37,3.69,11.37,0.8
				c0.49,1.56,1.99,1.97,3.15,1.55c1.48-0.53,1.5-1.79,1.49-3.07C120.03,97.83,120.05,89.71,120.03,87.66z M111.06,99.22
				c-2.65,0.05-4.74-2.16-4.75-5.02c-0.01-2.8,1.98-4.96,4.6-5c2.66-0.04,4.59,2.03,4.6,4.92
				C115.52,97.06,113.68,99.17,111.06,99.22z"/>
			<path class="st0" d="M16.75,100.46c0,1.14-0.89,2.03-2.06,2.03H3.1c-1.14,0-2.03-0.89-2.03-2.03c0-0.61,0.18-1.03,0.82-1.74
				L10,88.94H3.6c-1.17,0-2.06-0.85-2.06-2.03s0.89-2.03,2.06-2.03h10.77c1.17,0,2.06,0.85,2.06,1.99c0,0.68-0.25,1.14-0.68,1.64
				l-8.18,9.92h7.11C15.86,98.44,16.75,99.29,16.75,100.46z"/>
			<path class="st0" d="M35.52,92.75v0.11c0,1.49-1.07,2.45-2.63,2.45H22.86c0.57,2.2,2.35,3.48,4.94,3.48
				c1.28,0,2.6-0.36,3.66-1.03c0.36-0.21,0.68-0.32,1.03-0.32c1.1,0,1.96,0.82,1.96,1.92c0,0.78-0.36,1.35-1.21,1.92
				c-1.6,1.07-3.52,1.64-5.58,1.64c-5.55,0-9.64-3.95-9.64-9.21c0-5.23,3.95-9.21,9.14-9.21C31.96,84.5,35.52,87.98,35.52,92.75z
				 M22.86,91.93h8c-0.07-2.1-1.56-3.55-3.81-3.55C24.96,88.37,23.4,89.76,22.86,91.93z"/>
			<path class="st0" d="M71.6,100.53c0,0.89-0.46,1.56-1.21,1.92c-0.68,0.29-1.46,0.46-2.49,0.46c-4.59,0-7.04-2.31-7.04-6.62v-7.36
				h-1c-1.17,0-2.06-0.85-2.06-2.03s0.89-2.03,2.06-2.03h1v-2.31c0-1.39,1-2.42,2.42-2.42c1.35,0,2.38,1.03,2.38,2.42v2.31h3.24
				c1.17,0,2.03,0.85,2.03,2.03s-0.85,2.03-2.03,2.03h-3.24v6.93c0,1.96,0.93,2.74,3.16,2.74c0.29,0,0.5-0.04,0.68-0.04
				C70.78,98.58,71.6,99.36,71.6,100.53z"/>
			<path class="st0" d="M91.56,93.67c0,5.12-4.2,9.21-9.49,9.21c-5.26,0-9.39-4.05-9.39-9.21c0-5.15,4.13-9.17,9.42-9.17
				C87.36,84.5,91.56,88.55,91.56,93.67z M77.55,93.71c0,2.77,1.92,4.77,4.55,4.77c2.6,0,4.55-2.03,4.55-4.77
				c0-2.77-1.96-4.84-4.55-4.84C79.47,88.87,77.55,90.9,77.55,93.71z"/>
			<path class="st0" d="M94.36,100.46V79.42c0-1.39,1.03-2.45,2.42-2.45c1.35,0,2.38,1.07,2.38,2.45v21.04
				c0,1.39-1.03,2.45-2.38,2.45C95.39,102.92,94.36,101.85,94.36,100.46z"/>
			<path class="st0" d="M141.93,93.71c0,5.33-3.59,9.21-8.53,9.21c-2.28,0-4.16-0.82-5.37-2.24c-0.11,1.32-1.07,2.24-2.31,2.24
				c-1.35,0-2.38-1.07-2.38-2.45V79.42c0-1.39,1.03-2.45,2.42-2.45c1.35,0,2.38,1.03,2.38,2.45v7.17c1.21-1.32,3.06-2.1,5.26-2.1
				C138.34,84.5,141.93,88.37,141.93,93.71z M137.06,93.67c0-2.77-1.92-4.84-4.55-4.84c-2.63,0-4.45,1.99-4.45,4.87
				c0,2.88,1.78,4.84,4.45,4.84C135.17,98.54,137.06,96.52,137.06,93.67z"/>
		</g>
		<path class="st0" d="M56.92,93.71c0,5.37-3.61,9.3-8.58,9.3c-2.22,0-4.08-0.79-5.29-2.15v6.7c0,1.39-1.04,2.43-2.4,2.43
			c-1.4,0-2.43-1.04-2.43-2.43V86.85c0-1.36,1.04-2.4,2.4-2.4c1.29,0,2.25,0.97,2.33,2.29c1.22-1.43,3.11-2.25,5.4-2.25
			C53.31,84.48,56.92,88.35,56.92,93.71z M52.02,93.75c0-2.86-1.9-4.9-4.58-4.9s-4.47,1.97-4.47,4.87c0,2.9,1.82,4.9,4.47,4.9
			C50.09,98.61,52.02,96.58,52.02,93.75z"/>
	</g>
	<g>
		<path class="st0" d="M71.3,10.94"/>
		<g>
			<circle class="st0" cx="78" cy="10.3" r="3.58"/>
			<circle class="st0" cx="73.68" cy="2.84" r="2.09"/>
		</g>
	</g>
</g>
    <path class="st0" d="M94.53,57.05c-1.86-3.19-9.22-15.93-9.22-15.93c-0.66-1.14-0.73-2.53-0.19-3.74l2.87-7.97
	c0,0,1.56-3.8-0.37-6.92c-1.65-2.67-4.02-3.72-6.52-3.72h-6.75c-0.25-3.13-2.88-5.6-6.1-5.6c-3.21,0-5.84,2.47-6.1,5.6h-0.5
	c-0.22,0-0.44,0.02-0.67,0.06c-2.23,0.19-4.31,1.27-5.8,3.69c-1.93,3.13-0.37,6.92-0.37,6.92l2.87,7.97
	c0.54,1.21,0.47,2.6-0.19,3.74c0,0-7.36,12.74-9.22,15.93c-4.19,7.2,1,16.23,9.33,16.23h17.23v-0.03H85.2
	C93.53,73.28,98.72,64.24,94.53,57.05z M65.85,41.43c0.62-1.07,0.63-2.32,0.16-3.36l0.01-0.02l-3.53-8.02
	c-0.64-1.86,0.74-3.87,2.79-3.87l12.24-0.03c2.05,0,3.43,2.01,2.79,3.87l-0.01,0.05l-3.52,8l0.01,0.02
	c-0.47,1.04-0.46,2.29,0.16,3.36l8.11,15.94l0.34,0.67c-1.45,0.4-3.23,0.68-5.38,0.68c-5.65,0-8.4-3.73-13.7-3.73
	c-2.37,0-5.47,0.75-8.18,1.59L65.85,41.43z"/>
</svg>
